<svg xmlns="http://www.w3.org/2000/svg" version="1.1" xmlns:xlink="http://www.w3.org/1999/xlink" xmlns:svgjs="http://svgjs.dev/svgjs" width="100%" height="100%" viewBox="0 0 1000 600"><rect width="1000" height="600" x="0" y="0" fill="#f8f9fa"/><g><circle r="166.66666666666666" cx="280.79886881510413" cy="303.02105723127045" fill="#6a1b9a" transform="matrix(1.0952216540521909,0,0,1.0952216540521909,0,-31.87520584804446)"/><path d="M314.5323597489716 338.84963083156106Q316.7216251126906 338.84963083156106 317.99281145291445 340.89765326858844Q319.2639977931384 342.92213521783395 319.2639977931384 346.4767488729045L319.2639977931384 346.4767488729045Q319.2639977931384 353.09162593962526 316.0624914547967 356.9993469114247L316.0624914547967 356.9993469114247Q299.27812366628467 377.5031117694808 280.28095002627174 377.5031117694808L280.28095002627174 377.5031117694808Q263.8496895544885 377.5031117694808 254.00976566164414 364.7912483672417Q244.1933822565817 352.07938496500253 244.1933822565817 328.3505732808228L244.1933822565817 328.3505732808228Q244.1933822565817 322.58315377425134 244.6877325000021 316.8157342676799L244.6877325000021 316.8157342676799Q233.50600080358805 318.86375670470727 220.2997871579285 319.87599767933L220.2997871579285 319.87599767933Q211.47210423970688 320.55867182500583 208.24705741358324 320.7234552394793L208.24705741358324 320.7234552394793Q204.85722717298611 338.0021732714118 198.76024083746773 363.0963332469431L198.76024083746773 363.0963332469431Q195.20562718239717 377.8326785984277 185.2009198750793 377.8326785984277L185.2009198750793 377.8326785984277Q174.34875500761217 377.8326785984277 174.34875500761217 368.0162951933653L174.34875500761217 368.0162951933653Q174.34875500761217 365.8034893418644 175.19621256776145 361.9193088578469L175.19621256776145 361.9193088578469Q180.96363207433293 338.6848474170876 184.35346231493003 322.58315377425134L184.35346231493003 322.58315377425134L176.23199403016613 322.9362610909802Q170.62935793806815 322.9362610909802 168.0869852576203 320.9824006050805Q165.54461257717247 319.0285401191808 165.54461257717247 314.6264689039609L165.54461257717247 314.6264689039609Q165.54461257717247 309.0238328118629 168.76965940329612 306.4108386680693Q171.99470622941976 303.7743040364938 179.43350036850785 303.44473720754684L179.43350036850785 303.44473720754684L188.42596670120292 303.091629890818Q192.8280379164228 279.1980347921648 192.8280379164228 266.65095480439913L192.8280379164228 266.65095480439913Q192.8280379164228 258.69426993410866 190.45044865044844 255.798789936932Q188.096399872256 252.9268504275372 184.18867890045655 252.9268504275372L184.18867890045655 252.9268504275372Q172.32427305836669 252.9268504275372 157.39960380462668 272.74794113991754L157.39960380462668 272.74794113991754Q155.2103384409077 275.6434211370942 152.5031823459864 275.6434211370942L152.5031823459864 275.6434211370942Q150.12559308001204 275.6434211370942 148.43067795971348 273.4306152855933Q146.73576283941495 271.24134992187436 146.73576283941495 267.85151968127724L146.73576283941495 267.85151968127724Q146.73576283941495 262.5784504181262 150.97305064016132 256.6462474970813L150.97305064016132 256.6462474970813Q158.43538526703134 246.3119733608165 169.78190037791887 239.62647483074997Q181.1284154888064 232.91743581290154 192.8280379164228 232.91743581290154L192.8280379164228 232.91743581290154Q203.8449861983634 232.91743581290154 209.871351070536 240.47393239089925Q215.87417545492673 248.00688848111503 215.87417545492673 263.9437987094778L215.87417545492673 263.9437987094778Q215.87417545492673 278.02101040306854 211.82521155643573 302.0793889161952L211.82521155643573 302.0793889161952L228.42125544269237 301.23193135604595Q239.10863689568606 300.7140406248436 246.73575493702953 299.5370162357474L246.73575493702953 299.5370162357474Q249.77247786089774 280.89294991246334 256.05778809867155 264.6264728551536Q262.3195578486634 248.3599957978439 271.64159101030543 238.1905050760526Q280.9636241719475 228.0210143542613 292.4984631850905 228.0210143542613L292.4984631850905 228.0210143542613Q300.9730387865832 228.0210143542613 305.89300073300535 234.7065128843278Q310.78942219164566 241.3920114143943 310.78942219164566 252.24417628186143L310.78942219164566 252.24417628186143Q310.78942219164566 294.2874874603783 267.9221939407614 310.553964517688L267.9221939407614 310.553964517688Q267.4043032095591 317.3336249988822 267.4043032095591 324.6311762112788L267.4043032095591 324.6311762112788Q267.4043032095591 342.42778497441356 271.80637442477894 349.86657911350164Q276.2319861277807 357.32891374037166 284.1886709980712 357.32891374037166L284.1886709980712 357.32891374037166Q291.1331148937388 357.32891374037166 296.90053440031033 353.6801381341734Q302.66795390688173 350.054903015757 309.9419646314964 341.2272200975354L309.9419646314964 341.2272200975354Q311.98998706852376 338.84963083156106 314.5323597489716 338.84963083156106L314.5323597489716 338.84963083156106ZM291.65100562494115 242.7573597057459Q287.9080680676152 242.7573597057459 283.7649422179965 249.53702018694014Q279.62181636837784 256.3166806681343 275.8788788110519 268.01630309575074Q272.1594817415078 279.7159255233671 269.9466758900069 293.6048133147025L269.9466758900069 293.6048133147025Q283.50599685239536 288.0021772226045 289.9560905046426 277.6679030863397Q296.382643669108 267.3336289500749 296.382643669108 251.0671518927652L296.382643669108 251.0671518927652Q296.382643669108 247.15943092096578 295.04083586553827 244.97016555724682Q293.67548757418666 242.7573597057459 291.65100562494115 242.7573597057459L291.65100562494115 242.7573597057459ZM352.83273337016254 378.02100250068315Q330.280946075079 378.02100250068315 316.7216251126906 369.4522649480627Q303.16230415030213 360.88352739544223 303.16230415030213 343.27524253456284L303.16230415030213 343.27524253456284Q303.16230415030213 333.9532093729208 306.3873509764258 329.0332474264986Q309.6123978025495 324.1132854800764 315.8741675525413 324.1132854800764L315.8741675525413 324.1132854800764Q320.46456267001656 324.1132854800764 323.33650217941135 326.4908747460508Q326.23198217658796 328.86846401202513 326.23198217658796 332.58786108156914L326.23198217658796 332.58786108156914Q326.23198217658796 335.97769132216627 325.71409144538563 338.5200640026141L325.71409144538563 338.5200640026141Q325.71409144538563 339.20273814828994 325.4551460797845 340.89765326858844Q325.1962007141833 342.592568388887 325.1962007141833 344.45226692365907L325.1962007141833 344.45226692365907Q325.1962007141833 352.07938496500253 332.91748070665454 355.79878203454655Q340.63876069912567 359.54171959187255 354.52764849046105 359.54171959187255L354.52764849046105 359.54171959187255Q368.93442701299875 359.54171959187255 377.07943578554455 354.3628122798492Q385.2009040703084 349.20744545560774 385.2009040703084 339.8854122939657L385.2009040703084 339.8854122939657Q385.2009040703084 334.11799278739426 381.4815070007644 329.95132644999364Q377.73856944343845 325.80820060037496 372.15947383912237 323.00688255432595Q366.55683774702436 320.20556450827695 356.3873470252331 316.156600609786L356.3873470252331 316.156600609786Q343.345916794047 311.0718552488903 335.1302865581554 306.4814601314151Q326.89111583448187 301.9146055017218 321.0530748645647 294.0285420947771Q315.21503389464743 286.14247868783247 315.21503389464743 274.44285626021605L315.21503389464743 274.44285626021605Q315.21503389464743 262.2488835891793 321.73574901024045 252.76206701306376Q328.25646412583353 243.27525043694826 340.54459874799807 238.0021811737972Q352.83273337016254 232.75265239842807 369.4523177442011 232.75265239842807L369.4523177442011 232.75265239842807Q381.8110738297114 232.75265239842807 392.14534796597616 236.40142800462635Q402.50316259002284 240.0502036108246 408.67077038888704 247.51253823769463Q414.86191867553316 254.95133237678272 414.86191867553316 265.80349724424985L414.86191867553316 265.80349724424985Q414.86191867553316 276.4908786972435 411.63687184940943 281.90519088708606Q408.43536551106774 287.3430435647106 402.150055273294 287.3430435647106L402.150055273294 287.3430435647106Q397.74798405807417 287.3430435647106 394.78188259755166 284.61234698200735Q391.81578113702915 281.90519088708606 391.81578113702915 278.18579381754205L391.81578113702915 278.18579381754205Q391.81578113702915 274.9607469914184 392.3336718682316 272.2535908964971L392.3336718682316 272.2535908964971Q392.828022111652 267.16884553560146 392.828022111652 265.80349724424985L392.828022111652 265.80349724424985Q392.828022111652 258.69426993410866 385.88357821598424 254.95133237678272Q378.9391343203166 251.23193530723867 368.6048601840518 251.23193530723867L368.6048601840518 251.23193530723867Q354.0097577592587 251.23193530723867 346.31201825456947 256.5756260337355Q338.5907382620983 261.91931676023233 338.5907382620983 271.5709167508213L338.5907382620983 271.5709167508213Q338.5907382620983 278.02101040306854 342.5690806972435 282.5878650327619Q346.57096362017063 287.1547196624552 352.5031665412156 290.21498307410536Q358.4353694622605 293.27524648575553 369.09921042747226 297.51253428650193L369.09921042747226 297.51253428650193Q381.9758572441848 302.76206306187106 389.7912991877837 306.9993508626174Q397.58320064360066 311.2366386633638 403.09167478457096 318.51064938797845Q408.60014892554125 325.80820060037496 408.60014892554125 336.4955820533686L408.60014892554125 336.4955820533686Q408.60014892554125 356.4814561802224 393.4165343062001 367.2394590965618Q378.2564601746408 378.02100250068315 352.83273337016254 378.02100250068315L352.83273337016254 378.02100250068315Z " fill="#f8f9fa" transform="matrix(1.0952216540521909,0,0,1.0952216540521909,0,-31.87520584804446)"/><path d="M698.5954395829559 338.84963083156106Q700.7847049466749 338.84963083156106 702.0558912868988 340.89765326858844Q703.3270776271227 342.92213521783395 703.3270776271227 346.4767488729045L703.3270776271227 346.4767488729045Q703.3270776271227 353.09162593962526 700.125571288781 356.9993469114247L700.125571288781 356.9993469114247Q683.341203500269 377.5031117694808 664.344029860256 377.5031117694808L664.344029860256 377.5031117694808Q647.9127693884728 377.5031117694808 638.0728454956285 364.7912483672417Q628.2564620905661 352.07938496500253 628.2564620905661 328.3505732808228L628.2564620905661 328.3505732808228Q628.2564620905661 322.58315377425134 628.7508123339865 316.8157342676799L628.7508123339865 316.8157342676799Q617.5690806375724 318.86375670470727 604.3628669919128 319.87599767933L604.3628669919128 319.87599767933Q595.5351840736912 320.55867182500583 592.3101372475676 320.7234552394793L592.3101372475676 320.7234552394793Q588.9203070069705 338.0021732714118 582.823320671452 363.0963332469431L582.823320671452 363.0963332469431Q579.2687070163815 377.8326785984277 569.2639997090637 377.8326785984277L569.2639997090637 377.8326785984277Q558.4118348415965 377.8326785984277 558.4118348415965 368.0162951933653L558.4118348415965 368.0162951933653Q558.4118348415965 365.8034893418644 559.2592924017458 361.9193088578469L559.2592924017458 361.9193088578469Q565.0267119083172 338.6848474170876 568.4165421489143 322.58315377425134L568.4165421489143 322.58315377425134L560.2950738641505 322.9362610909802Q554.6924377720525 322.9362610909802 552.1500650916046 320.9824006050805Q549.6076924111568 319.0285401191808 549.6076924111568 314.6264689039609L549.6076924111568 314.6264689039609Q549.6076924111568 309.0238328118629 552.8327392372805 306.4108386680693Q556.0577860634041 303.7743040364938 563.4965802024922 303.44473720754684L563.4965802024922 303.44473720754684L572.4890465351873 303.091629890818Q576.8911177504071 279.1980347921648 576.8911177504071 266.65095480439913L576.8911177504071 266.65095480439913Q576.8911177504071 258.69426993410866 574.5135284844328 255.798789936932Q572.1594797062403 252.9268504275372 568.251758734441 252.9268504275372L568.251758734441 252.9268504275372Q556.387352892351 252.9268504275372 541.462683638611 272.74794113991754L541.462683638611 272.74794113991754Q539.273418274892 275.6434211370942 536.5662621799706 275.6434211370942L536.5662621799706 275.6434211370942Q534.1886729139964 275.6434211370942 532.4937577936978 273.4306152855933Q530.7988426733992 271.24134992187436 530.7988426733992 267.85151968127724L530.7988426733992 267.85151968127724Q530.7988426733992 262.5784504181262 535.0361304741457 256.6462474970813L535.0361304741457 256.6462474970813Q542.4984651010157 246.3119733608165 553.8449802119032 239.62647483074997Q565.1914953227907 232.91743581290154 576.8911177504071 232.91743581290154L576.8911177504071 232.91743581290154Q587.9080660323477 232.91743581290154 593.9344309045204 240.47393239089925Q599.937255288911 248.00688848111503 599.937255288911 263.9437987094778L599.937255288911 263.9437987094778Q599.937255288911 278.02101040306854 595.88829139042 302.0793889161952L595.88829139042 302.0793889161952L612.4843352766767 301.23193135604595Q623.1717167296704 300.7140406248436 630.7988347710138 299.5370162357474L630.7988347710138 299.5370162357474Q633.835557694882 280.89294991246334 640.1208679326559 264.6264728551536Q646.3826376826478 248.3599957978439 655.7046708442898 238.1905050760526Q665.0267040059318 228.0210143542613 676.5615430190747 228.0210143542613L676.5615430190747 228.0210143542613Q685.0361186205675 228.0210143542613 689.9560805669896 234.7065128843278Q694.85250202563 241.3920114143943 694.85250202563 252.24417628186143L694.85250202563 252.24417628186143Q694.85250202563 294.2874874603783 651.9852737747458 310.553964517688L651.9852737747458 310.553964517688Q651.4673830435434 317.3336249988822 651.4673830435434 324.6311762112788L651.4673830435434 324.6311762112788Q651.4673830435434 342.42778497441356 655.8694542587632 349.86657911350164Q660.295065961765 357.32891374037166 668.2517508320554 357.32891374037166L668.2517508320554 357.32891374037166Q675.1961947277232 357.32891374037166 680.9636142342946 353.6801381341734Q686.7310337408661 350.054903015757 694.0050444654808 341.2272200975354L694.0050444654808 341.2272200975354Q696.0530669025081 338.84963083156106 698.5954395829559 338.84963083156106L698.5954395829559 338.84963083156106ZM675.7140854589254 242.7573597057459Q671.9711479015995 242.7573597057459 667.8280220519808 249.53702018694014Q663.6848962023621 256.3166806681343 659.9419586450362 268.01630309575074Q656.2225615754921 279.7159255233671 654.0097557239912 293.6048133147025L654.0097557239912 293.6048133147025Q667.5690766863797 288.0021772226045 674.019170338627 277.6679030863397Q680.4457235030923 267.3336289500749 680.4457235030923 251.0671518927652L680.4457235030923 251.0671518927652Q680.4457235030923 247.15943092096578 679.1039156995225 244.97016555724682Q677.738567408171 242.7573597057459 675.7140854589254 242.7573597057459L675.7140854589254 242.7573597057459ZM736.8958132041469 378.02100250068315Q714.3440259090632 378.02100250068315 700.7847049466749 369.4522649480627Q687.2253839842865 360.88352739544223 687.2253839842865 343.27524253456284L687.2253839842865 343.27524253456284Q687.2253839842865 333.9532093729208 690.4504308104101 329.0332474264986Q693.6754776365337 324.1132854800764 699.9372473865257 324.1132854800764L699.9372473865257 324.1132854800764Q704.5276425040008 324.1132854800764 707.3995820133957 326.4908747460508Q710.2950620105723 328.86846401202513 710.2950620105723 332.58786108156914L710.2950620105723 332.58786108156914Q710.2950620105723 335.97769132216627 709.77717127937 338.5200640026141L709.77717127937 338.5200640026141Q709.77717127937 339.20273814828994 709.5182259137688 340.89765326858844Q709.2592805481677 342.592568388887 709.2592805481677 344.45226692365907L709.2592805481677 344.45226692365907Q709.2592805481677 352.07938496500253 716.9805605406389 355.79878203454655Q724.70184053311 359.54171959187255 738.5907283244454 359.54171959187255L738.5907283244454 359.54171959187255Q752.997506846983 359.54171959187255 761.1425156195289 354.3628122798492Q769.2639839042928 349.20744545560774 769.2639839042928 339.8854122939657L769.2639839042928 339.8854122939657Q769.2639839042928 334.11799278739426 765.5445868347488 329.95132644999364Q761.8016492774228 325.80820060037496 756.2225536731067 323.00688255432595Q750.6199175810087 320.20556450827695 740.4504268592174 316.156600609786L740.4504268592174 316.156600609786Q727.4089966280313 311.0718552488903 719.1933663921398 306.4814601314151Q710.9541956684661 301.9146055017218 705.116154698549 294.0285420947771Q699.2781137286318 286.14247868783247 699.2781137286318 274.44285626021605L699.2781137286318 274.44285626021605Q699.2781137286318 262.2488835891793 705.7988288442248 252.76206701306376Q712.3195439598178 243.27525043694826 724.6076785819823 238.0021811737972Q736.8958132041469 232.75265239842807 753.5153975781855 232.75265239842807L753.5153975781855 232.75265239842807Q765.8741536636957 232.75265239842807 776.2084277999604 236.40142800462635Q786.5662424240072 240.0502036108246 792.7338502228713 247.51253823769463Q798.9249985095175 254.95133237678272 798.9249985095175 265.80349724424985L798.9249985095175 265.80349724424985Q798.9249985095175 276.4908786972435 795.6999516833938 281.90519088708606Q792.4984453450521 287.3430435647106 786.2131351072783 287.3430435647106L786.2131351072783 287.3430435647106Q781.8110638920584 287.3430435647106 778.844962431536 284.61234698200735Q775.8788609710135 281.90519088708606 775.8788609710135 278.18579381754205L775.8788609710135 278.18579381754205Q775.8788609710135 274.9607469914184 776.3967517022159 272.2535908964971L776.3967517022159 272.2535908964971Q776.8911019456364 267.16884553560146 776.8911019456364 265.80349724424985L776.8911019456364 265.80349724424985Q776.8911019456364 258.69426993410866 769.9466580499686 254.95133237678272Q763.0022141543009 251.23193530723867 752.6679400180361 251.23193530723867L752.6679400180361 251.23193530723867Q738.0728375932431 251.23193530723867 730.3750980885538 256.5756260337355Q722.6538180960827 261.91931676023233 722.6538180960827 271.5709167508213L722.6538180960827 271.5709167508213Q722.6538180960827 278.02101040306854 726.6321605312278 282.5878650327619Q730.634043454155 287.1547196624552 736.5662463751999 290.21498307410536Q742.4984492962449 293.27524648575553 753.1622902614565 297.51253428650193L753.1622902614565 297.51253428650193Q766.0389370781692 302.76206306187106 773.854379021768 306.9993508626174Q781.6462804775849 311.2366386633638 787.1547546185552 318.51064938797845Q792.6632287595256 325.80820060037496 792.6632287595256 336.4955820533686L792.6632287595256 336.4955820533686Q792.6632287595256 356.4814561802224 777.4796141401844 367.2394590965618Q762.3195400086252 378.02100250068315 736.8958132041469 378.02100250068315L736.8958132041469 378.02100250068315Z " fill="#6a1b9a" transform="matrix(1.0952216540521909,0,0,1.0952216540521909,0,-31.87520584804446)"/></g></svg>